<svg xmlns="http://www.w3.org/2000/svg" width="30.094" height="26.12" viewBox="0 0 30.094 26.12">
  <defs>
    <style>
      .cls-1 {
        fill: #008e43;
        fill-rule: evenodd;
      }
    </style>
  </defs>
  <path id="chk.svg" class="cls-1" d="M735.2,5940.82a70.485,70.485,0,0,0-6.645,8.58c-1.657-1.68-7.029-5.79-9.5-5.79a1.461,1.461,0,0,0-.856.23,0.31,0.31,0,0,0-.14.3h0a2.2,2.2,0,0,0,.783,1.19,3.094,3.094,0,0,1,.322.33l0.012,0.01,0.012,0.01a44.119,44.119,0,0,1,8.863,11.62,1.28,1.28,0,0,0,1.136.7h0a1.282,1.282,0,0,0,1.163-.74c6.6-14.14,13.289-20.34,16.143-22.99,1.217-1.13,1.722-1.6,1.679-2.07h0a0.292,0.292,0,0,0-.184-0.26,0.906,0.906,0,0,0-.379-0.08c-0.92,0-2.793,1.04-4.2,1.91l0,0.01a39.063,39.063,0,0,0-4.319,3.24A48.457,48.457,0,0,0,735.2,5940.82Z" transform="translate(-718.062 -5931.88)"/>
</svg>
