<svg width="98" height="40" viewBox="0 0 98 40" fill="none" xmlns="http://www.w3.org/2000/svg">
<g clip-path="url(#clip0_93_158)">
<path d="M94.2822 0.453186H3.74023V39.5468H94.2822V0.453186Z" fill="#ED1C24"/>
<path d="M15.0553 12.726C20.7011 10.6346 27.0903 9.27858 33.619 10.2209L34.2928 9.00279C35.6404 8.79594 37.0112 8.61208 38.3587 8.47418L36.5465 11.2091C38.3123 11.9676 39.776 13.8062 39.9386 15.7367C39.9386 18.3568 38.7537 20.5401 37.4061 22.5626L39.381 22.3328C40.7053 20.1954 44.4227 17.6213 45.9562 19.5748L46.4905 18.8394C46.4905 18.8394 48.9301 18.4717 48.9765 18.4717C46.8158 22.4477 45.6541 23.5279 45.9329 23.8956C46.2582 24.3323 50.2079 20.8619 51.6949 18.035L54.0415 17.7822L52.7172 20.1034C55.087 18.1729 55.9467 16.9318 57.271 17.4834C59.1065 18.2418 55.087 22.4707 55.5285 22.7465C55.9002 22.9763 59.1297 20.6321 60.6864 18.2648L58.4792 18.6096L59.2459 17.1846L61.4298 16.9088C63.7997 12.5881 70.0263 4.33729 71.9315 5.55538C73.6973 6.68153 69.4455 12.1514 63.8694 16.1045L63.5209 16.725L68.3535 16.1964C68.4464 16.2423 68.4929 16.4032 68.3767 16.4952C66.8201 17.8052 63.7532 20.9998 65.3563 21.988C66.7736 22.4937 68.9808 19.2531 69.1899 18.5866C67.9353 18.1959 68.9343 14.7255 70.7233 15.1851C71.9315 15.5988 71.0254 17.2996 70.7233 17.9661C73.0235 17.6903 75.0913 15.369 75.0913 15.369C75.0681 13.5304 76.253 11.5539 77.6238 12.0365C78.5067 12.4962 77.7864 13.8062 76.3227 15.346C76.1368 15.5299 76.2297 16.2423 76.2065 17.0927C77.7632 16.5641 79.5289 15.8287 80.9927 15.1162C81.0159 13.3465 81.8988 11.2091 83.409 11.6458C84.501 11.9676 83.409 14.1509 82.0382 15.2541C82.015 17.6213 82.4099 19.1841 81.8059 20.4252C81.1088 21.8501 78.6925 23.0452 77.252 22.2179C75.7651 21.3675 77.0894 19.4599 77.9955 18.7475C78.8087 18.081 80.8765 17.1387 80.8765 17.1387C80.8765 17.1387 80.9927 16.3343 80.9462 15.9436C80.133 16.4262 76.253 17.8511 76.253 17.8511C76.0903 19.2531 76.1136 19.8277 75.4398 21.1147C74.6034 22.7005 71.8386 23.344 70.9092 22.4477C70.2587 21.8272 70.4445 20.3333 71.7921 19.2761C72.7911 18.4717 74.9287 17.5983 74.9287 17.5983C74.9287 17.5983 75.1145 16.7939 75.0448 16.4722C73.674 17.6443 72.1174 18.8164 70.1193 18.8624C68.9111 21.2526 65.6816 24.5621 63.3815 23.0682C61.151 21.6433 64.729 17.8741 65.1008 17.5983C64.3573 17.6443 62.8703 17.9661 62.8703 17.9661L58.9438 25.1596L58.9903 25.1367C58.9903 25.1367 72.3962 23.6198 84.5707 23.5968L83.1069 24.9528C83.804 25.4354 84.5242 25.9181 85.2677 26.3318C85.2677 26.3318 72.582 25.7802 57.968 26.9753L55.8305 30.9053L53.1819 31.0892L55.482 27.1591C55.482 27.1591 48.8371 27.366 34.2463 29.3195C34.409 29.0207 34.4554 28.9518 34.6878 28.5611C47.629 25.987 56.4346 25.3435 56.4346 25.3435C56.4346 25.3435 58.4792 21.8731 58.3862 21.9421C57.1084 22.9993 54.2738 25.2516 53.0889 24.1484C52.2293 23.0912 55.2264 19.7127 54.8779 19.4369C54.5991 19.2071 51.0444 22.8154 49.7665 24.7919C49.0462 24.8379 47.6987 24.9988 47.6987 24.9988L48.721 23.0223C47.5593 23.9186 46.3279 24.8839 45.0268 25.3895C44.6551 25.5274 43.8187 25.5733 43.4701 24.6081C43.4701 24.6081 40.8447 26.9523 39.079 26.056C38.1264 25.5733 38.5678 23.8037 38.7305 23.413L36.6394 23.6428C27.5783 34.031 15.7523 35.2031 14.335 32.9278C12.8248 30.4916 18.1918 27.2281 25.5337 24.9298C25.5337 24.9298 32.0624 13.3006 31.9462 13.2086C22.9315 11.8526 11.7793 18.7015 11.7793 18.7015L15.0553 12.726ZM18.4706 31.4569C19.5394 32.7899 28.3914 31.388 34.3857 24.0335C30.2501 24.677 27.7874 25.5504 26.8812 25.8721C24.9296 29.0207 24.1164 30.1699 23.3729 30.055C22.4668 29.9401 23.9073 28.2393 24.674 26.6076C21.4213 27.6648 17.4948 30.2159 18.4706 31.4569ZM28.0429 24.1944C30.3663 23.5738 33.9908 22.9993 35.2222 22.8614C36.2677 21.1836 39.6598 15.5988 34.804 13.8521L28.0429 24.1944ZM42.0529 21.8501C41.3559 22.7694 40.6124 24.3093 41.17 24.746C41.7508 25.1826 43.3307 23.8267 43.8651 23.1602C44.7712 21.988 45.5147 20.3792 44.9571 20.0805C44.0742 19.6208 42.5408 21.2066 42.0529 21.8501ZM64.8684 14.1509C66.6342 13.0707 71.1416 8.63506 70.0263 7.60084C68.8646 7.09522 65.7746 12.0365 64.8684 14.1509ZM72.9073 19.414C72.1638 19.9426 71.7921 20.6091 72.1638 20.9078C72.5123 21.1836 73.4417 20.655 73.8367 20.0805C74.4872 19.2071 74.6266 18.4487 74.6266 18.4487C74.6266 18.4487 74.0458 18.5866 72.9073 19.414ZM78.7855 19.1152C78.5299 19.345 77.5773 20.1954 77.9955 20.6091C78.344 20.9768 79.3895 20.3563 79.8077 19.8736C80.3654 19.2071 80.6442 18.1499 80.6442 18.1499C80.6442 18.1499 79.5289 18.4717 78.7855 19.1152Z" fill="white"/>
<path d="M101.485 0.453186H94.2598V39.5468H101.485V0.453186Z" fill="url(#paint0_radial_93_158)"/>
<path d="M3.74035 0.453186H-3.48535V39.5468H3.74035V0.453186Z" fill="url(#paint1_radial_93_158)"/>
</g>
<defs>
<radialGradient id="paint0_radial_93_158" cx="0" cy="0" r="1" gradientUnits="userSpaceOnUse" gradientTransform="translate(94.5604 -1.21935) rotate(94.7986) scale(102.815 3.67949)">
<stop stop-color="#871518"/>
<stop offset="0.135" stop-color="#881919" stop-opacity="0.865"/>
<stop offset="0.2618" stop-color="#8C241E" stop-opacity="0.7382"/>
<stop offset="0.3853" stop-color="#933427" stop-opacity="0.6147"/>
<stop offset="0.507" stop-color="#9E4938" stop-opacity="0.493"/>
<stop offset="0.6272" stop-color="#AB6250" stop-opacity="0.3728"/>
<stop offset="0.7464" stop-color="#BE8371" stop-opacity="0.2536"/>
<stop offset="0.8647" stop-color="#D5B0A2" stop-opacity="0.1353"/>
<stop offset="0.9795" stop-color="#F5ECE8" stop-opacity="0.0204907"/>
<stop offset="1" stop-color="white" stop-opacity="0"/>
</radialGradient>
<radialGradient id="paint1_radial_93_158" cx="0" cy="0" r="1" gradientUnits="userSpaceOnUse" gradientTransform="translate(3.43893 -1.22336) rotate(85.2014) scale(102.815 3.67949)">
<stop stop-color="#871518"/>
<stop offset="0.135" stop-color="#881919" stop-opacity="0.865"/>
<stop offset="0.2618" stop-color="#8C241E" stop-opacity="0.7382"/>
<stop offset="0.3853" stop-color="#933427" stop-opacity="0.6147"/>
<stop offset="0.507" stop-color="#9E4938" stop-opacity="0.493"/>
<stop offset="0.6272" stop-color="#AB6250" stop-opacity="0.3728"/>
<stop offset="0.7464" stop-color="#BE8371" stop-opacity="0.2536"/>
<stop offset="0.8647" stop-color="#D5B0A2" stop-opacity="0.1353"/>
<stop offset="0.9795" stop-color="#F5ECE8" stop-opacity="0.0204907"/>
<stop offset="1" stop-color="white" stop-opacity="0"/>
</radialGradient>
<clipPath id="clip0_93_158">
<rect width="98" height="40" fill="white"/>
</clipPath>
</defs>
</svg>
